# xmcd
#
# Track frame offsets:
#	150
#	15230
#	28769
#	48646
#	63143
#	76848
#	95114
#	114250
#	130437
#	147232
#	165400
#	182340
#	194480
#	206377
#	222747
#	236924
#	256307
#	272277
#	301119
#
# Disc length: 4377 seconds
#
# Revision: 1
# Processed by: cddbd v1.5.2PL0 Copyright (c) Steve Scherf et al.
# Submitted via: audiograbber 1.83.01
#
DISCID=03111713
DTITLE=The Mavericks - Covers
DYEAR=2008
DGENRE=Country
TTITLE0=Down On The Corner
TTITLE1=Something Stupid ( Feat. Trisha Yearwood)
TTITLE2=Blue Bayou
TTITLE3=Here Comes My Baby
TTITLE4=Are You Lonsome Tonight
TTITLE5=Blue Moon
TTITLE6=Call Me The Breeze
TTITLE7=All That Heaven Will Allow
TTITLE8=World Without Love
TTITLE9=Air That I Breathe
TTITLE10=You`re Gonna Make Me Lonesome When You Go
TTITLE11=Excuse Me ( I Think I`ve Got A Heartache)
TTITLE12=Hey Good Lookin`
TTITLE13=( Tonight ) The Bottle Let Me
TTITLE14=I Guess Things Happen That Way
TTITLE15=Bright Side Of The Road
TTITLE16=New York, New York
TTITLE17=From Hell To Paradise/Guantanamera
TTITLE18=La Mucara
EXTD=
EXTT0=
EXTT1=
EXTT2=
EXTT3=
EXTT4=
EXTT5=
EXTT6=
EXTT7=
EXTT8=
EXTT9=
EXTT10=
EXTT11=
EXTT12=
EXTT13=
EXTT14=
EXTT15=
EXTT16=
EXTT17=
EXTT18=
PLAYORDER=
